<svg width="400" height="114" viewBox="0 0 400 114" fill="none" xmlns="http://www.w3.org/2000/svg">
<g clip-path="url(#clip0_2799_4884)">
<path d="M202.055 35.4902C195.208 35.4902 189.228 39.0922 185.868 44.488V35.5045H170.165C163.602 35.5045 157.821 38.7932 154.39 43.8188V35.5045H142.688V73.4886H154.39V65.1742C157.821 70.1999 163.602 73.5028 170.165 73.5028H171.204H185.882V64.5051C189.242 69.9009 195.222 73.5028 202.07 73.5028H203.109H222.813V63.2238H202.895H202.91C200.02 63.2238 197.457 61.8143 195.877 59.6503H222.813V49.3712H195.905C197.485 47.2215 200.034 45.812 202.91 45.812H204.234L222.813 45.7978V35.5187H202.07L202.055 35.4902ZM170.976 63.2095H170.991C166.178 63.2095 162.278 59.3229 162.278 54.5108C162.278 49.6987 166.178 45.7978 170.991 45.7978H172.315L185.114 45.7835C183.761 48.3889 182.978 51.3502 182.978 54.4965C182.978 57.6429 183.761 60.6042 185.114 63.2238H170.962L170.976 63.2095Z" fill="#004098"/>
<path d="M333.903 36.132L333.192 35.9612C330.33 35.2778 327.34 34.9219 324.265 34.9219C321.19 34.9219 318.115 35.292 315.21 35.9896L314.698 36.1178C310.085 37.3279 306.17 40.218 303.636 44.1047V35.4771H282.893C273.98 35.4771 266.506 41.5705 264.427 49.8137C262.349 41.5563 254.874 35.4629 245.962 35.4629H243.912H225.219V45.7562H245.122C249.934 45.7704 253.835 49.6856 253.835 54.4977C253.835 59.3097 249.934 63.1964 245.122 63.1964H245.136H225.219V63.4384V86.8867H236.922V73.4755H245.962C254.874 73.4755 262.349 67.3821 264.427 59.1247C266.506 67.3821 273.98 73.4755 282.893 73.4755H283.932H303.636V64.8764C306.17 68.7488 310.099 71.6389 314.698 72.8633L315.21 72.9914C318.115 73.689 321.147 74.0592 324.265 74.0592C327.383 74.0592 330.33 73.7033 333.192 73.0199L333.903 72.8491C342.019 70.685 347.998 63.3103 347.998 54.4977V54.4692C347.998 45.6565 342.019 38.296 333.903 36.1178V36.132ZM302.653 63.2107H283.704H283.718C278.906 63.2107 275.005 59.324 275.005 54.5119C275.005 49.6998 278.906 45.7989 283.718 45.7989H285.042H302.653C301.301 48.4042 300.532 51.3655 300.532 54.5119V54.5404C300.532 57.6867 301.301 60.6338 302.653 63.2391V63.2107ZM336.822 54.5404C336.822 58.5409 334.117 61.9151 330.444 62.9402C330.045 63.054 329.647 63.111 329.234 63.1822C327.625 63.4669 325.974 63.6235 324.279 63.6235C322.585 63.6235 320.948 63.4812 319.353 63.1964L318.086 62.9402C314.427 61.9151 311.737 58.5409 311.737 54.5546V54.5261C311.737 50.5256 314.442 47.1514 318.115 46.1263C318.513 46.0124 318.912 45.9555 319.325 45.8843C320.934 45.5996 322.585 45.443 324.279 45.443C325.974 45.443 327.611 45.5853 329.205 45.8701L330.472 46.1263C334.131 47.1514 336.822 50.5255 336.822 54.5119V54.5404Z" fill="#004098"/>
<path d="M105.417 29C100.121 29 95.2091 30.6657 91.18 33.4846C87.1367 30.6657 82.2392 29 76.9431 29C63.1618 29 52 40.1618 52 53.9289C52 67.696 63.1618 78.8577 76.9289 78.8577C82.225 78.8577 87.1367 77.192 91.1658 74.3731C95.2091 77.192 100.107 78.8577 105.403 78.8577C119.17 78.8577 130.332 67.696 130.332 53.9289C130.332 40.1618 119.184 29 105.417 29Z" fill="white"/>
<path d="M128.908 45.5723L91.4219 74.5444C95.4082 77.2637 100.235 78.844 105.417 78.844C119.184 78.844 130.346 67.6822 130.346 53.9151C130.346 50.9823 129.833 48.1776 128.908 45.5723Z" fill="#E60012"/>
<path d="M91.1654 38.9231L94.8386 36.6025L106.84 29.0427C106.37 29.0142 105.886 29 105.402 29C103.865 29 102.37 29.1424 100.918 29.3986L93.9274 35.7056L91.1512 38.2113L82.4951 44.0627L53.8789 63.4249C54.2918 64.4072 54.7474 65.3611 55.2741 66.2865L81.7406 46.127L91.1654 38.9374V38.9231Z" fill="#E60012"/>
<path d="M76.9289 29C63.1618 29 52 40.1618 52 53.9289C52 56.8617 52.5125 59.6663 53.4379 62.2859L90.9238 33.2996C86.9374 30.5945 82.1253 29 76.9289 29Z" fill="#E60012"/>
<path d="M91.166 49.1596L99.6085 43.5929L117.234 31.9756C116.195 31.4204 115.127 30.9363 114.002 30.5234L98.9821 42.3116L91.166 48.4477L80.5311 55.5662L58.293 70.4723C59.0048 71.2695 59.7451 72.0098 60.5566 72.7075L80.7019 57.2034L91.166 49.1453V49.1596Z" fill="#E60012"/>
<path d="M91.1651 54.285L101.06 47.7075L120.963 34.4672C120.109 33.7838 119.198 33.1574 118.258 32.5879L100.633 46.2553L91.1651 53.6016L81.2704 60.1933L61.3672 73.4479C62.2214 74.1312 63.1326 74.7577 64.0722 75.3272L81.6975 61.6597L91.1651 54.3134V54.285Z" fill="#E60012"/>
<path d="M91.1655 59.3964L101.786 52.278L124.039 37.3719C123.341 36.5746 122.586 35.8343 121.789 35.1367L101.63 50.6265L91.1655 58.6704L82.723 64.237L65.0977 75.8543C66.137 76.4096 67.2047 76.9079 68.3294 77.3065L83.3494 65.5041L91.1655 59.368V59.3964Z" fill="#E60012"/>
<path d="M91.1653 44.0492L97.5292 39.9062L112.677 30.0827C111.41 29.6983 110.086 29.3994 108.734 29.2285L96.7604 38.8527L91.1653 43.3516L80.7439 50.3704L55.8008 67.1557C56.356 68.0384 56.9682 68.8926 57.6373 69.7041L80.5588 52.1784L91.1796 44.0492H91.1653Z" fill="#E60012"/>
<path d="M91.1669 64.5069L101.588 57.488L126.531 40.7027C125.976 39.8058 125.364 38.9658 124.695 38.1543L101.773 55.68L91.1526 63.8092L84.7745 67.9522L69.6406 77.7899C70.9077 78.1743 72.2317 78.459 73.5843 78.6441L85.5575 69.02L91.1526 64.5211L91.1669 64.5069Z" fill="#E60012"/>
<path d="M128.468 44.4319C128.055 43.4496 127.599 42.4957 127.073 41.5703L100.62 61.7156L91.1813 68.9052L87.4939 71.2258L75.4922 78.7999C75.9762 78.8284 76.4603 78.8426 76.9444 78.8426C78.4819 78.8426 79.9911 78.7002 81.4575 78.4297L88.4193 72.1228L91.1955 69.6028L99.8516 63.7514L128.482 44.4177L128.468 44.4319Z" fill="#E60012"/>
</g>
<defs>
<clipPath id="clip0_2799_4884">
<rect width="296" height="57.9016" fill="white" transform="translate(52 29)"/>
</clipPath>
</defs>
</svg>